HIERARCHY
ROOT Hips
{
	OFFSET -0.179506 -22.333345 2.821913
	CHANNELS 6 Xposition Yposition Zposition Zrotation Yrotation Xrotation 
	JOINT LeftUpLeg
	{
		OFFSET 6.951974 -9.140623 -0.681533
		CHANNELS 3 Zrotation Yrotation Xrotation
		JOINT LeftLeg
		{
			OFFSET 3.427654 -37.519855 -0.449580
			CHANNELS 3 Zrotation Yrotation Xrotation
			JOINT LeftFoot
			{
				OFFSET -1.359570 -39.796059 -4.369333
				CHANNELS 3 Zrotation Yrotation Xrotation
				JOINT LeftToe
				{
					OFFSET 2.635814 -5.579078 11.928840
					CHANNELS 3 Zrotation Yrotation Xrotation
					End Site
					{
						OFFSET 0.000000 0.000000 0.000000
					}
				}
			}
		}
	}
	JOINT RightUpLeg
	{
		OFFSET -6.767048 -9.052170 -0.431982
		CHANNELS 3 Zrotation Yrotation Xrotation
		JOINT RightLeg
		{
			OFFSET -3.829005 -38.256897 -0.885003
			CHANNELS 3 Zrotation Yrotation Xrotation
			JOINT RightFoot
			{
				OFFSET 1.577377 -39.841461 -4.231180
				CHANNELS 3 Zrotation Yrotation Xrotation
				JOINT RightToe
				{
					OFFSET -2.537174 -4.814398 12.334795
					CHANNELS 3 Zrotation Yrotation Xrotation
					End Site
					{
						OFFSET 0.000000 0.000000 0.000000
					}
				}
			}
		}
	}
	JOINT Spine
	{
		OFFSET -0.253288 10.896323 -2.669631
		CHANNELS 3 Zrotation Yrotation Xrotation
		JOINT Spine1
		{
			OFFSET 0.548704 13.518043 0.109247
			CHANNELS 3 Zrotation Yrotation Xrotation
			JOINT Spine2
			{
				OFFSET 0.145701 5.292222 2.542457
				CHANNELS 3 Zrotation Yrotation Xrotation
				JOINT Neck
				{
					OFFSET -0.277840 21.387037 -4.285703
					CHANNELS 3 Zrotation Yrotation Xrotation
					JOINT Head
					{
						OFFSET 0.515184 6.496960 5.134897
						CHANNELS 3 Zrotation Yrotation Xrotation
						End Site
						{
							OFFSET 0.000000 0.000000 0.000000
						}
					}
				}
				JOINT LeftShoulder
				{
					OFFSET 7.884473 12.174932 -3.408961
					CHANNELS 3 Zrotation Yrotation Xrotation
					JOINT LeftArm
					{
						OFFSET 9.097692 3.046888 -0.886815
						CHANNELS 3 Zrotation Yrotation Xrotation
						JOINT LeftForeArm
						{
							OFFSET 25.961220 -1.277207 -2.745643
							CHANNELS 3 Zrotation Yrotation Xrotation
							JOINT LeftHand
							{
								OFFSET 24.923361 0.898606 -0.117091
								CHANNELS 3 Zrotation Yrotation Xrotation
								End Site
								{
									OFFSET 0.000000 0.000000 0.000000
								}
							}
						}
					}
				}
				JOINT RightShoulder
				{
					OFFSET -8.175920 11.883285 -3.861528
					CHANNELS 3 Zrotation Yrotation Xrotation
					JOINT RightArm
					{
						OFFSET -9.601238 3.255117 -0.914307
						CHANNELS 3 Zrotation Yrotation Xrotation
						JOINT RightForeArm
						{
							OFFSET -25.374195 -1.332924 -2.140099
							CHANNELS 3 Zrotation Yrotation Xrotation
							JOINT RightHand
							{
								OFFSET -25.529810 0.777228 -0.555919
								CHANNELS 3 Zrotation Yrotation Xrotation
								End Site
								{
									OFFSET 0.000000 0.000000 0.000000
								}
							}
						}
					}
				}
			}
		}
	}
}
MOTION
Frames: 12
Frame Time: 0.033333
63.171009 33.852123 37.191319 -179.795050 1.195213 79.833681 22.733433 6.775081 -84.271567 0.347170 16.052932 140.208816 1.505311 17.581989 -43.071129 nan nan nan -18.150905 -2.772095 -88.454861 -5.040437 -12.047959 144.049545 2.967654 -10.383557 -45.613443 nan nan nan -2.679942 0.814318 69.289691 1.520984 3.058650 -16.059901 0.089749 0.478719 4.770940 1.590861 4.157888 -0.414259 2.173086 -3.717129 23.036514 -24.381709 -33.565849 -0.608613 -14.461273 -23.396170 8.783813 -1.681461 -44.674107 -10.804501 11.219949 -18.326174 -29.854077 20.649376 37.885054 2.643944 11.127452 23.820912 3.671888 -3.222054 41.207829 -22.794761 -10.964887 9.225849 -32.886224 
63.180328 33.816696 37.250328 -179.793489 1.209084 79.948766 22.756262 6.763899 -84.270661 0.456002 15.983230 140.056816 1.612211 17.765444 -43.300435 nan nan nan -18.182810 -2.749364 -88.409754 -5.063008 -12.031346 143.937661 3.202459 -10.131906 -45.813425 nan nan nan -2.645406 0.762036 69.182867 1.462070 3.115327 -16.136314 0.036141 0.525925 4.671971 1.655999 4.176652 -0.340452 2.146612 -3.763275 23.217845 -24.265152 -33.386173 -1.048879 -14.658743 -23.699653 9.083248 -2.215129 -44.470001 -10.636261 11.620262 -18.136086 -29.727750 20.786421 37.606188 2.654608 11.236441 23.940253 3.902881 -3.086324 41.281766 -22.559538 -11.658357 9.063291 -31.827925 
63.171272 33.832371 37.342171 -179.760502 1.160428 79.867192 22.734559 6.692901 -84.055671 0.582204 15.970059 139.926996 1.678884 17.961288 -43.463716 nan nan nan -18.104934 -2.752227 -88.297289 -5.056365 -11.937391 143.847342 3.114975 -10.247343 -45.600449 nan nan nan -2.633654 0.739713 69.247803 1.433740 3.115989 -16.194825 0.027912 0.526527 4.599197 1.639919 4.128917 -0.307256 2.099266 -3.724633 23.512030 -24.245743 -33.311208 -1.216934 -14.789830 -23.783633 9.212397 -2.480071 -44.399373 -10.509871 11.940368 -18.147238 -29.849353 20.977651 37.487065 2.682746 11.352467 23.952184 4.090206 -3.190634 41.253955 -22.497903 -12.058172 8.941433 -31.017076 
63.169231 33.816242 37.427174 -179.776714 1.139746 79.841880 22.746616 6.688781 -83.904348 0.663379 15.948323 139.805328 1.901145 17.647993 -43.267738 nan nan nan -17.953104 -2.673057 -88.196575 -5.052170 -11.849870 143.711973 2.813864 -10.545967 -45.426138 nan nan nan -2.595514 0.765835 69.100702 1.428088 3.118960 -16.002924 0.068262 0.490104 4.497567 1.588169 4.015847 -0.226758 2.074034 -3.592726 23.506655 -24.137144 -33.348324 -1.289719 -15.040274 -23.695149 9.103322 -2.212809 -44.346004 -10.399857 11.060686 -18.296891 -29.436617 20.922349 37.520170 2.764622 11.526302 23.855644 3.980804 -3.437093 41.282989 -22.621704 -11.653129 9.034903 -31.075907 
63.172958 33.787647 37.489166 -179.796840 1.103378 79.918245 22.709555 6.686075 -83.922966 0.764607 15.924542 139.650102 2.123302 17.185408 -42.990397 nan nan nan -17.961172 -2.613489 -88.165889 -5.080350 -11.814247 143.609562 2.814225 -10.559773 -45.507020 nan nan nan -2.592060 0.802442 68.831253 1.467620 3.101210 -15.847940 0.077377 0.439025 4.434450 1.590409 4.108236 -0.057928 2.032308 -3.526847 23.393325 -24.300259 -33.389154 -1.010597 -14.853830 -23.498827 8.825129 -1.858353 -44.566779 -10.431651 9.802314 -18.632441 -28.770750 21.035571 37.542050 3.006712 11.484111 23.796406 3.820223 -3.581303 41.432681 -22.706659 -11.466354 8.973644 -31.278197 
63.160172 33.753460 37.538292 -179.846148 1.070879 80.106983 22.679618 6.652077 -84.057525 0.859059 15.915465 139.499249 2.197611 17.110354 -42.812959 nan nan nan -18.141715 -2.683212 -88.227691 -5.112630 -11.872240 143.502411 2.967473 -10.281741 -45.708920 nan nan nan -2.616857 0.838297 68.465328 1.547240 3.083216 -15.777575 0.051910 0.444026 4.430558 1.672441 4.268519 0.098462 1.981445 -3.662492 23.317470 -24.573691 -33.364977 -0.714696 -14.637901 -23.409532 8.785134 -1.525914 -44.834399 -10.740707 9.393433 -18.780593 -28.627259 21.281828 37.460382 3.253877 11.271645 23.781862 3.807057 -3.635198 41.687625 -22.671388 -11.539109 8.617323 -31.523435 
63.169380 33.722881 37.641563 -179.894564 1.106414 80.238287 22.676113 6.624792 -84.032368 0.840607 15.906686 139.338449 2.152781 17.249789 -42.746103 nan nan nan -18.256253 -2.805951 -88.200519 -5.199883 -12.038533 143.302693 2.873696 -10.105444 -45.662841 nan nan nan -2.619304 0.854519 68.258032 1.586595 3.097083 -15.827588 0.035601 0.534411 4.475904 1.760227 4.294550 0.161897 1.944626 -3.881561 23.316060 -24.579825 -33.254582 -0.946268 -14.810210 -23.601264 9.105165 -1.621384 -44.779046 -10.758582 9.355085 -18.742828 -28.716228 21.415597 37.284243 3.255944 11.229712 23.829364 3.915641 -3.634097 41.784824 -22.564672 -11.564805 8.363569 -31.623904 
63.194462 33.699867 37.783115 -179.920800 1.167056 80.211926 22.647035 6.569605 -83.834898 0.794764 15.869398 139.147911 2.166907 17.301728 -42.670632 nan nan nan -18.129454 -2.778178 -88.067548 -5.268475 -12.122735 143.083889 2.657576 -10.114749 -45.356869 nan nan nan -2.588907 0.876607 68.259969 1.598016 3.105002 -15.878088 0.081264 0.568837 4.562464 1.793656 4.281864 -0.005119 1.933540 -3.973525 23.367132 -24.411794 -33.207274 -1.081374 -15.075615 -23.703555 9.200022 -1.694475 -44.758785 -10.783666 9.642795 -18.687370 -29.036929 21.228192 37.189736 3.019328 11.477178 23.904143 3.995491 -3.618312 41.793386 -22.539798 -11.756942 8.331194 -31.765718 
63.217545 33.666603 37.944725 -179.879992 1.199428 80.141941 22.604179 6.441720 -83.571981 0.731554 15.830173 138.901598 2.135846 17.362251 -42.641536 nan nan nan -18.052135 -2.750170 -87.745867 -5.291556 -12.185929 142.858685 2.532644 -10.044564 -45.255337 nan nan nan -2.547796 0.895168 68.312263 1.643198 3.063222 -15.860430 0.126578 0.576011 4.624573 1.848064 4.376310 -0.295272 1.869203 -4.065002 23.555624 -24.260939 -33.259957 -1.029688 -15.245023 -23.655599 9.148820 -1.407363 -44.841959 -11.276977 10.447864 -18.574672 -29.541613 21.053808 37.178463 2.783680 11.766924 23.936442 4.024592 -3.827597 41.793669 -22.761650 -11.907420 8.329540 -31.947744 
63.216797 33.618797 38.066559 -179.867613 1.072109 80.299424 22.489943 6.406602 -83.532994 0.754151 15.821659 138.671021 2.108683 17.367411 -42.595785 nan nan nan -18.157028 -2.849763 -87.694324 -5.271150 -12.148644 142.650726 2.542158 -9.808139 -45.327453 nan nan nan -2.583966 0.922400 68.039439 1.643316 3.045860 -15.763800 0.062741 0.555907 4.536363 1.957556 4.401376 -0.322562 1.792218 -4.164666 23.807409 -24.324235 -33.169586 -1.128960 -15.252279 -23.782333 9.232725 -1.469522 -44.714525 -11.532889 10.811008 -18.369757 -29.350965 21.301371 37.070584 2.831038 11.860006 23.950923 4.087334 -4.059471 41.702683 -23.320355 -11.732440 8.625951 -32.506372 
63.175900 33.574379 38.141834 -179.886453 0.831207 80.594833 22.312303 6.367826 -83.668015 0.957150 15.823658 138.517610 2.128086 17.453755 -42.552884 nan nan nan -18.229927 -2.938186 -87.972583 -5.226907 -11.907799 142.467480 2.524047 -9.731126 -45.278763 nan nan nan -2.701876 0.951246 67.506492 1.627318 3.010769 -15.541805 -0.004295 0.484904 4.373686 2.017587 4.312998 -0.209678 1.785662 -4.096303 23.891439 -24.390194 -32.980562 -1.218416 -15.334798 -23.879611 9.306903 -1.553092 -44.737577 -11.520823 10.694368 -18.089901 -28.800618 21.501613 36.931697 3.058244 11.820749 23.981492 4.185120 -4.120534 41.632705 -23.533235 -11.507349 8.989406 -33.074355 
63.183651 33.563061 38.286224 -179.877446 0.773926 80.648550 22.293406 6.228627 -83.508316 1.038252 15.774951 138.359452 1.955152 17.501962 -42.547913 nan nan nan -18.100315 -2.782219 -87.841264 -5.227164 -11.745526 142.207218 2.563040 -9.805440 -45.170773 nan nan nan -2.773903 0.958941 67.307646 1.646160 2.984275 -15.324685 0.025968 0.482821 4.244537 2.067546 4.237563 -0.211694 1.785435 -4.031942 23.870624 -24.356384 -32.901722 -1.273133 -15.493663 -23.815031 9.353197 -1.272914 -44.953119 -11.343976 10.386679 -17.791358 -28.405334 21.473711 36.902633 3.100967 11.893918 23.900442 4.303969 -4.141594 41.763020 -23.302011 -11.394785 9.030463 -33.328043 
